<?xml version="1.0" encoding="UTF-8" standalone="no"?>
<!DOCTYPE svg PUBLIC "-//W3C//DTD SVG 1.1//EN" "http://www.w3.org/Graphics/SVG/1.1/DTD/svg11.dtd">
<svg width="555px" height="555px" version="1.1" xmlns="http://www.w3.org/2000/svg" xmlns:xlink="http://www.w3.org/1999/xlink" xml:space="preserve" xmlns:serif="http://www.serif.com/" style="fill-rule:evenodd;clip-rule:evenodd;stroke-linejoin:round;stroke-miterlimit:2;">
    <g transform="matrix(1,0,0,1,-1347.11,-580.837)">
        <g transform="matrix(1.00481,0,0,1.00481,-1.71592,-16.3961)">
            <circle cx="1619.64" cy="871.646" r="274.642" style="fill:white;"/>
        </g>
        <g id="pinterest-logo.svg" transform="matrix(1.81825,0,0,1.81825,1624.39,858.12)">
            <g transform="matrix(1,0,0,1,-152.5,-152.5)">
                <clipPath id="_clip1">
                    <rect x="0" y="0" width="305" height="305"/>
                </clipPath>
                <g clip-path="url(#_clip1)">
                    <g id="g62" transform="matrix(1.25,0,0,-1.25,152.49,0.00012)">
                        <g>
                            <g id="g621" serif:id="g62">
                                <path id="path64" d="M0,0C-67.374,0 -121.992,-54.618 -121.992,-121.992C-121.992,-173.674 -89.837,-217.855 -44.457,-235.63C-45.523,-225.978 -46.487,-211.134 -44.034,-200.597C-41.817,-191.076 -29.729,-139.959 -29.729,-139.959C-29.729,-139.959 -33.378,-132.651 -33.378,-121.847C-33.378,-104.884 -23.546,-92.22 -11.304,-92.22C-0.896,-92.22 4.131,-100.034 4.131,-109.404C4.131,-119.871 -2.533,-135.52 -5.972,-150.022C-8.846,-162.164 0.117,-172.066 12.093,-172.066C33.775,-172.066 50.442,-149.204 50.442,-116.203C50.442,-86.994 29.454,-66.572 -0.515,-66.572C-35.226,-66.572 -55.6,-92.607 -55.6,-119.513C-55.6,-129.998 -51.561,-141.241 -46.521,-147.353C-45.524,-148.561 -45.378,-149.619 -45.675,-150.852C-46.601,-154.705 -48.659,-162.991 -49.063,-164.687C-49.595,-166.92 -50.831,-167.394 -53.143,-166.318C-68.379,-159.226 -77.905,-136.95 -77.905,-119.058C-77.905,-80.576 -49.945,-45.235 2.7,-45.235C45.019,-45.235 77.906,-75.391 77.906,-115.692C77.906,-157.735 51.397,-191.571 14.603,-191.571C2.241,-191.571 -9.38,-185.149 -13.358,-177.563C-13.358,-177.563 -19.475,-200.855 -20.958,-206.563C-23.712,-217.159 -31.147,-230.441 -36.12,-238.544C-24.706,-242.078 -12.576,-243.984 0,-243.984C67.375,-243.984 121.993,-189.366 121.993,-121.992C121.993,-54.618 67.375,0 0,0" style="fill:rgb(230,0,35);fill-rule:nonzero;"/>
                            </g>
                        </g>
                    </g>
                </g>
            </g>
        </g>
    </g>
</svg>