<?xml version="1.0" encoding="UTF-8" standalone="no"?>
<!DOCTYPE svg PUBLIC "-//W3C//DTD SVG 1.1//EN" "http://www.w3.org/Graphics/SVG/1.1/DTD/svg11.dtd">
<svg width="144px" height="128px" version="1.1" xmlns="http://www.w3.org/2000/svg" xmlns:xlink="http://www.w3.org/1999/xlink" xml:space="preserve" xmlns:serif="http://www.serif.com/" style="fill-rule:evenodd;clip-rule:evenodd;stroke-linejoin:round;stroke-miterlimit:2;">
    <g transform="matrix(1,0,0,1,-707.134,-1332.71)">
        <g transform="matrix(1.28685,0,0,1.04051,-215.977,-53.9942)">
            <path d="M828.784,1391.77C828.784,1424.36 803.817,1450.82 773.064,1450.82C763.086,1450.82 753.292,1447.98 744.703,1442.6L720.222,1454.84L728.794,1427.63C721.367,1417.33 717.343,1404.73 717.343,1391.77C717.343,1359.17 742.31,1332.71 773.064,1332.71C803.817,1332.71 828.784,1359.17 828.784,1391.77ZM747.162,1385.56C743.493,1385.56 740.514,1389.24 740.514,1393.78C740.514,1398.31 743.493,1402 747.162,1402C750.831,1402 753.809,1398.31 753.809,1393.78C753.809,1389.24 750.831,1385.56 747.162,1385.56ZM773.064,1385.56C769.395,1385.56 766.416,1389.24 766.416,1393.78C766.416,1398.31 769.395,1402 773.064,1402C776.732,1402 779.711,1398.31 779.711,1393.78C779.711,1389.24 776.732,1385.56 773.064,1385.56ZM798.965,1385.56C795.296,1385.56 792.318,1389.24 792.318,1393.78C792.318,1398.31 795.296,1402 798.965,1402C802.634,1402 805.613,1398.31 805.613,1393.78C805.613,1389.24 802.634,1385.56 798.965,1385.56Z" style="fill:rgb(118,118,118);"/>
        </g>
    </g>
</svg>