<?xml version="1.0" encoding="UTF-8" standalone="no"?>
<!DOCTYPE svg PUBLIC "-//W3C//DTD SVG 1.1//EN" "http://www.w3.org/Graphics/SVG/1.1/DTD/svg11.dtd">
<svg width="144px" height="162px" version="1.1" xmlns="http://www.w3.org/2000/svg" xmlns:xlink="http://www.w3.org/1999/xlink" xml:space="preserve" xmlns:serif="http://www.serif.com/" style="fill-rule:evenodd;clip-rule:evenodd;stroke-linejoin:round;stroke-miterlimit:2;">
    <g transform="matrix(1,0,0,1,-733.528,-516.729)">
        <g transform="matrix(-0.314613,-0.314613,0.314613,-0.314613,812.49,1057.56)">
            <path d="M804.758,715C804.758,696.711 819.606,681.863 837.895,681.863C856.183,681.863 871.032,696.711 871.032,715L871.032,848.005L738.026,848.005C719.738,848.005 704.889,833.157 704.889,814.868C704.889,796.58 719.738,781.732 738.026,781.732L804.758,781.732L804.758,715Z" style="fill:rgb(47,47,47);"/>
        </g>
        <g transform="matrix(1.01728,0,0,0.40678,-348.955,374.517)">
            <path d="M1180.73,631.814C1180.73,614.999 1186.18,601.347 1192.91,601.347C1199.63,601.347 1205.09,614.999 1205.09,631.814L1205.09,747.235L1064.09,747.235L1064.09,631.814C1064.09,614.999 1069.55,601.347 1076.27,601.347C1083,601.347 1088.46,614.999 1088.46,631.814C1088.46,631.814 1088.46,686.302 1088.46,686.302L1180.73,686.302L1180.73,631.814Z" style="fill:rgb(47,47,47);"/>
        </g>
        <g transform="matrix(1,0,0,1,-329.345,-68.8762)">
            <path d="M1146.98,682.211C1146.98,689.051 1141.43,694.604 1134.59,694.604C1127.75,694.604 1122.2,689.051 1122.2,682.211L1122.2,612.375C1122.2,605.535 1127.75,599.982 1134.59,599.982C1141.43,599.982 1146.98,605.535 1146.98,612.375L1146.98,682.211Z" style="fill:rgb(47,47,47);"/>
        </g>
    </g>
</svg>